<?xml version="1.0" encoding="UTF-8"?>
<svg version="1.1" xmlns="http://www.w3.org/2000/svg" width="1458" height="1458">
<path d="M0 0 C1.00691895 0.1954541 2.01383789 0.3909082 3.05126953 0.59228516 C35.93840288 7.16136351 67.59607343 18.8447815 97.00097656 34.91015625 C98.74124846 35.85893174 100.49094479 36.79038037 102.2421875 37.71875 C121.77690863 48.12251083 140.15997587 61.34717082 156.30078125 76.484375 C158.49383456 78.5282626 160.71621991 80.49746413 163 82.4375 C173.79361396 91.81149459 183.18388971 102.44707426 192.125 113.5625 C192.62837891 114.18809814 193.13175781 114.81369629 193.65039062 115.45825195 C203 127.17759928 203 127.17759928 203 130 C203.86894646 129.75699409 203.86894646 129.75699409 204.75544739 129.50907898 C208.3638304 128.69067449 212.01664004 128.83748981 215.69921875 128.83203125 C216.55816238 128.82779648 217.41710602 128.82356171 218.30207825 128.81919861 C221.09726812 128.80928062 223.89229557 128.80928466 226.6875 128.8125 C227.64027832 128.81310425 228.59305664 128.8137085 229.57470703 128.81433105 C291.91605207 128.92199724 352.4127297 143.67125443 408 172 C408.6899707 172.35046387 409.37994141 172.70092773 410.09082031 173.06201172 C450.46405629 193.74599684 488.66343175 223.36236808 518 258 C518.93505418 259.07261272 519.87136903 260.14412708 520.80859375 261.21484375 C526.92924612 268.2339405 532.63975684 275.37560697 538 283 C538.79613017 284.09003962 539.59441539 285.17850761 540.39453125 286.265625 C546.04704477 293.98314346 551.14994216 301.90529132 555.94287109 310.18261719 C556.94386176 311.90348891 557.96548844 313.61230879 558.98828125 315.3203125 C564.58554753 324.80986616 569.26464374 334.67378061 573.90283203 344.65869141 C574.79754933 346.5679791 575.72084887 348.4638515 576.65234375 350.35546875 C595.32100285 388.67534796 604.021944 433.56051992 605 476 C605.03287109 477.31073486 605.03287109 477.31073486 605.06640625 478.64794922 C606.49409483 544.99977577 589.57769791 613.64128411 552 669 C551.2898877 670.05985107 551.2898877 670.05985107 550.56542969 671.14111328 C544.37245481 680.38157458 538.12376255 689.4453305 531 698 C529.74942079 699.60371517 528.49944246 701.20789904 527.25 702.8125 C523.06502199 708.04988898 518.53501918 712.92907097 513.95703125 717.8203125 C511.33360904 720.62527181 508.78718927 723.4916312 506.25 726.375 C503.09200046 729.89455942 499.82570562 733.05829923 496.2109375 736.1015625 C494.02645966 737.97728022 491.92454289 739.92696575 489.82543945 741.8972168 C483.21549164 748.08050991 476.24346765 753.58291465 469 759 C468.08089844 759.71542969 467.16179687 760.43085937 466.21484375 761.16796875 C452.66781497 771.62833275 438.05073371 780.86632213 423 789 C422.19288574 789.44166504 421.38577148 789.88333008 420.55419922 790.33837891 C409.65085548 796.28114769 398.65187725 801.77897026 387.1875 806.5625 C386.21635254 806.96774902 385.24520508 807.37299805 384.24462891 807.79052734 C379.81076666 809.59578098 375.40337353 811.20048598 370.81416321 812.5667572 C369.91286839 812.83555663 369.01157358 813.10435606 368.0829668 813.38130093 C367.39558776 813.58547162 366.70820871 813.78964231 366 814 C366.00092179 814.62004221 366.00184359 815.24008442 366.00279331 815.87891579 C366.06791799 860.53228758 366.06766494 905.18547584 366.01571959 949.83886278 C366.01464101 950.7663447 366.01356243 951.69382663 366.01245117 952.64941406 C366.01136677 953.58018001 366.01028237 954.51094596 366.00916511 955.46991694 C366.00156566 962.16451412 365.99611463 968.85911113 365.99145508 975.55371094 C365.97601866 996.68677933 365.94288086 1017.81963692 365.86630154 1038.95258141 C365.83316179 1048.20028743 365.80811172 1057.44784828 365.80471802 1066.69561768 C365.80174565 1074.60245326 365.78165845 1082.50901498 365.73957574 1090.41574311 C365.71853278 1094.46252552 365.7053748 1098.50891817 365.71382904 1102.55575562 C365.72137115 1106.2774975 365.70555702 1109.99841676 365.67193592 1113.72000766 C365.65994989 1115.69318308 365.6722006 1117.66646087 365.68556309 1119.63962746 C365.57085034 1128.61497393 363.92148851 1136.81899464 358.39002705 1144.12706947 C356.34635973 1146.8807187 355.97890953 1149.9565214 355.3125 1153.25 C351.19477722 1171.32430744 340.56280417 1185.70626904 328 1199 C327.12214844 1199.93972656 327.12214844 1199.93972656 326.2265625 1200.8984375 C310.77859073 1216.92661478 290.88033533 1228.45325371 271 1238 C270.21141602 1238.38172363 269.42283203 1238.76344727 268.61035156 1239.15673828 C194.43331569 1274.81258978 109.38785944 1287.555719 28.0625 1293.6875 C27.25562744 1293.74843842 26.44875488 1293.80937683 25.61743164 1293.87216187 C5.7036867 1295.35578997 -14.16367767 1296.1612322 -34.1328125 1296.203125 C-36.20671611 1296.21010335 -38.28061951 1296.21714432 -40.35452271 1296.22424316 C-46.9446845 1296.2435201 -53.53481308 1296.24841848 -60.125 1296.25 C-61.24577438 1296.25058914 -62.36654877 1296.25117828 -63.52128601 1296.25178528 C-95.90808782 1296.26381125 -128.16993947 1296.13422753 -160.45141602 1293.22784424 C-163.03656776 1292.99673083 -165.62253093 1292.77803345 -168.20898438 1292.56201172 C-206.77681426 1289.30673745 -245.09945138 1283.84544109 -283 1276 C-283.67146057 1275.8616272 -284.34292114 1275.72325439 -285.034729 1275.58068848 C-337.54124746 1264.72304284 -392.39121201 1249.57412094 -438.2409668 1221.07275391 C-439.99125319 1220.00533428 -441.76539218 1218.99648035 -443.5546875 1217.99609375 C-447.01759861 1215.98980398 -450.31135733 1213.82696958 -453.5625 1211.5 C-454.15748291 1211.07420654 -454.75246582 1210.64841309 -455.36547852 1210.2097168 C-462.24798028 1205.20155239 -468.67288239 1199.68620562 -475 1194 C-475.67546875 1193.39800781 -476.3509375 1192.79601563 -477.046875 1192.17578125 C-490.21760632 1179.72630426 -500.15004029 1165.12239464 -501.18387532 1146.72850943 C-501.26647009 1143.14784743 -501.28400342 1139.57251369 -501.2784729 1135.99090576 C-501.28348731 1134.61523687 -501.28936641 1133.23957092 -501.29602563 1131.86390901 C-501.31170128 1128.11708485 -501.31524938 1124.37033592 -501.31667423 1120.62348294 C-501.32039021 1116.57046488 -501.33555646 1112.51748705 -501.34928894 1108.4644928 C-501.37149694 1101.4534625 -501.38654895 1094.44244664 -501.39665604 1087.43138885 C-501.41127942 1077.29474542 -501.43682639 1067.15815232 -501.46498732 1057.02153853 C-501.510389 1040.57312889 -501.54703111 1024.12471198 -501.578125 1007.67626953 C-501.60833773 991.70392582 -501.64270047 975.73159988 -501.68261719 959.75927734 C-501.68630951 958.28096306 -501.68630951 958.28096306 -501.69007643 956.77278385 C-501.70245156 951.8283037 -501.71490799 946.88382377 -501.72740483 941.93934393 C-501.83087338 900.95958735 -501.92010929 859.97980889 -502 819 C-502.57282243 818.74309419 -503.14564486 818.48618837 -503.73582554 818.22149754 C-506.35945394 817.04431945 -508.98258652 815.86604045 -511.60571289 814.68774414 C-512.95728359 814.0816116 -512.95728359 814.0816116 -514.33615875 813.46323395 C-520.76627417 810.57355944 -527.13963696 807.60690095 -533.4375 804.4375 C-534.81168091 803.74781128 -534.81168091 803.74781128 -536.21362305 803.04418945 C-545.84302356 798.15248462 -554.90764678 792.54534432 -563.8046875 786.421875 C-565.60923918 785.25309064 -567.47033773 784.17207618 -569.34375 783.1171875 C-572.92853775 781.08730502 -576.29081867 778.79063433 -579.625 776.375 C-580.22546143 775.9426001 -580.82592285 775.5102002 -581.44458008 775.06469727 C-587.73437712 770.5098462 -593.8956094 765.79963536 -600 761 C-600.88945313 760.30648437 -601.77890625 759.61296875 -602.6953125 758.8984375 C-609.89475728 753.16037255 -616.545218 746.88940513 -623.21875 740.55859375 C-626.1087068 737.82182747 -629.05687177 735.17238718 -632.0625 732.5625 C-641.80970926 723.85257821 -650.67579677 713.94271355 -658.80859375 703.7265625 C-661.8515944 699.94044048 -665.01711504 696.26131534 -668.19628906 692.58911133 C-671.08562424 689.21306711 -673.57202783 685.71707516 -676 682 C-677.49654825 679.95580184 -678.99681411 677.91432218 -680.5 675.875 C-686.9436399 666.95490011 -692.49959828 657.52124782 -698 648 C-698.4655127 647.19820312 -698.93102539 646.39640625 -699.41064453 645.5703125 C-731.05100636 590.71952538 -748.29770371 528.50155415 -748.1875 465.125 C-748.18656342 464.41556244 -748.18562683 463.70612488 -748.18466187 462.97518921 C-748.03602749 410.40182126 -736.09630868 360.17773149 -713 313 C-712.56929199 312.11795898 -712.13858398 311.23591797 -711.69482422 310.32714844 C-703.4351614 293.59797031 -693.33312676 277.81685054 -682 263 C-681.60135742 262.47277344 -681.20271484 261.94554687 -680.79199219 261.40234375 C-674.84339604 253.55430857 -668.56769248 246.16055228 -661.80859375 239 C-658.6005428 235.60131784 -655.55207043 232.07068192 -652.5234375 228.51171875 C-651 227 -651 227 -649 227 C-649 226.34 -649 225.68 -649 225 C-647.70703125 223.6953125 -647.70703125 223.6953125 -645.8125 222.125 C-642.6035319 219.40754638 -639.50391922 216.61356098 -636.44824219 213.72753906 C-629.63953847 207.31719533 -622.53503013 201.53041941 -615 196 C-614.44731445 195.59040039 -613.89462891 195.18080078 -613.32519531 194.75878906 C-595.07016166 181.26502212 -575.47142944 169.78450957 -555 160 C-554.25540527 159.64292969 -553.51081055 159.28585937 -552.74365234 158.91796875 C-503.60018311 135.5585704 -449.38811303 124.75079235 -395.125 124.8125 C-394.00744324 124.81191086 -394.00744324 124.81191086 -392.86730957 124.81130981 C-376.21777849 124.82171079 -359.47127373 125.41763929 -343 128 C-342.73316406 127.42507812 -342.46632813 126.85015625 -342.19140625 126.2578125 C-338.51656072 119.293679 -332.68847852 113.41746256 -327.40625 107.65234375 C-325.48236896 105.53170215 -323.60452435 103.38613282 -321.734375 101.21875 C-312.95732327 91.16916703 -303.36731233 81.44553965 -292.84765625 73.2265625 C-290.64869876 71.50721302 -288.50488934 69.7583413 -286.37109375 67.9609375 C-277.04647319 60.14488171 -267.38542148 53.33065995 -257 47 C-255.96190186 46.36433105 -255.96190186 46.36433105 -254.90283203 45.71582031 C-178.87378285 -0.58129787 -87.45271948 -17.06564975 0 0 Z " fill="#000101" transform="translate(793,102)"/>
<path d="M0 0 C0.84695938 0.00757324 1.69391876 0.01514648 2.56654358 0.02294922 C3.35371262 0.03559814 4.14088165 0.04824707 4.9519043 0.0612793 C5.63753952 0.0711235 6.32317474 0.08096771 7.02958679 0.09111023 C9.11047221 0.24746235 10.96904408 0.72589463 12.98828125 1.23828125 C14.7471675 1.29481688 16.50630377 1.34757218 18.26586914 1.37597656 C40.05456893 1.86426556 63.30905647 5.96307426 84.04931641 12.62939453 C86.157504 13.29142171 88.27742564 13.89218738 90.40625 14.484375 C91.89195499 14.90224455 93.37763295 15.3202102 94.86328125 15.73828125 C95.50547607 15.91560791 96.1476709 16.09293457 96.80932617 16.27563477 C134.23899829 27.11592232 173.33956993 49.99599452 201.5 76.87109375 C203.60172388 78.87053594 205.746054 80.71498623 207.98828125 82.55078125 C221.28546573 94.13753951 234.09264381 110.85393845 240.61328125 127.23828125 C241.06703125 128.22828125 241.52078125 129.21828125 241.98828125 130.23828125 C245.38696005 131.37117418 248.00138907 131.37668613 251.58569336 131.39599609 C252.25316589 131.40107681 252.92063843 131.40615753 253.6083374 131.41139221 C255.0618604 131.42209862 256.51539991 131.43071775 257.96894646 131.43751144 C260.29990199 131.44939348 262.63067983 131.46888651 264.96156311 131.4906311 C271.59157987 131.55181166 278.22159165 131.60547548 284.85180664 131.63964844 C307.83323896 131.76458861 330.21388008 132.88154224 352.98828125 136.23828125 C352.98828125 136.89828125 352.98828125 137.55828125 352.98828125 138.23828125 C354.00664063 138.4084375 355.025 138.57859375 356.07421875 138.75390625 C366.79576563 140.57855114 377.39117976 142.79660991 387.98828125 145.23828125 C387.98828125 145.89828125 387.98828125 146.55828125 387.98828125 147.23828125 C389.21546875 147.47804688 390.44265625 147.7178125 391.70703125 147.96484375 C397.820255 149.32572963 403.61616922 151.46134558 409.48828125 153.61328125 C411.10283203 154.19335938 411.10283203 154.19335938 412.75 154.78515625 C418.95207005 157.03633393 424.99486144 159.48403672 430.98828125 162.23828125 C432.59283969 162.9538676 434.19833005 163.66736753 435.8046875 164.37890625 C440.19921875 166.33203125 444.59375 168.28515625 448.98828125 170.23828125 C448.98828125 170.89828125 448.98828125 171.55828125 448.98828125 172.23828125 C450.22384766 172.60179687 450.22384766 172.60179687 451.484375 172.97265625 C455.59006513 174.455648 459.24735475 176.36252709 463.05078125 178.48828125 C463.82736084 178.92229248 464.60394043 179.35630371 465.40405273 179.8034668 C498.47335189 198.624701 530.42674982 224.05152637 554.98828125 253.23828125 C556.03628906 254.46998047 556.03628906 254.46998047 557.10546875 255.7265625 C565.30333512 265.52712592 572.34158753 275.92474047 578.81103516 286.91723633 C580.88051255 290.4291184 583.03054417 293.82931152 585.36328125 297.17578125 C587.58307449 300.43229111 589.02790282 303.54810974 590.2734375 307.27734375 C591.03396789 309.36360743 591.99702994 311.22267442 593.05078125 313.17578125 C594.88555187 316.72069655 595.67907193 320.06071472 596.42578125 323.9609375 C597.02156268 326.37302481 597.90564813 328.38035043 598.98828125 330.61328125 C600.55284091 333.92579218 601.37486272 336.86795948 601.92578125 340.48828125 C602.76939233 345.8888986 604.53995921 350.59035067 606.671875 355.609375 C614.67315603 377.66631884 616.8228084 402.92805934 616.98828125 426.23828125 C617.00684166 427.8110429 617.02609676 429.38379645 617.04589844 430.95654297 C617.09966254 435.41729072 617.13574112 439.87792753 617.16049194 444.33892822 C617.17048486 446.11136361 617.18277712 447.88378792 617.19766235 449.65618896 C617.31009098 465.26158111 616.55500203 480.88841149 613.17578125 496.17578125 C612.92030518 497.35901978 612.92030518 497.35901978 612.65966797 498.56616211 C611.4169755 504.02517256 609.65906114 509.00835521 607.33203125 514.109375 C605.67881174 517.9588774 604.40008247 521.87935821 603.11328125 525.86328125 C598.04395384 541.31157752 592.08660502 555.74331262 584.22167969 569.99365234 C583.074131 572.08204559 581.95358465 574.18250411 580.83984375 576.2890625 C570.93364832 594.76908162 558.19841077 611.44597599 544.1015625 626.90625 C542.21451588 628.98862861 540.37769892 631.10331189 538.55078125 633.23828125 C531.93763737 640.81584195 524.69563832 647.78619406 516.98828125 654.23828125 C516.4871582 654.66915039 515.98603516 655.10001953 515.46972656 655.54394531 C497.76097935 670.73892922 478.2050631 683.10014879 457.55273438 693.8840332 C453.84429829 695.84240097 450.17882574 697.87750865 446.51245117 699.91333008 C442.46644529 702.03710162 438.26231163 703.63864415 433.98828125 705.23828125 C431.77971094 706.09183499 429.57138842 706.94603009 427.36328125 707.80078125 C426.26628906 708.2184375 425.16929688 708.63609375 424.0390625 709.06640625 C422.21665602 709.76643435 420.39936169 710.48038195 418.59375 711.22265625 C414.56605379 712.85529792 411.33751705 713.56447393 406.98828125 713.23828125 C406.61703125 712.31015625 406.61703125 712.31015625 406.23828125 711.36328125 C405.20094776 709.14192265 405.20094776 709.14192265 403.28125 708.4375 C400.08916136 706.76804308 397.65447304 704.37344657 395.05078125 701.92578125 C394.53837891 701.45205078 394.02597656 700.97832031 393.49804688 700.49023438 C391.07987909 698.24413443 388.73390489 695.97454134 386.44140625 693.59765625 C383.98405396 691.23421551 381.58869903 689.55864915 378.67578125 687.80078125 C367.43186184 680.83015736 367.43186184 680.83015736 363.17797852 676.31811523 C360.94422812 674.19643839 358.92363085 672.92151239 356.19921875 671.50390625 C355.26625977 671.01607666 354.33330078 670.52824707 353.37207031 670.02563477 C352.37916992 669.51830811 351.38626953 669.01098145 350.36328125 668.48828125 C349.33944336 667.95968506 348.31560547 667.43108887 347.26074219 666.88647461 C339.01986423 662.67311749 330.66257703 658.80684791 322.1472168 655.18530273 C320.62652725 654.51824916 319.11838778 653.82221405 317.62036133 653.10571289 C309.3760365 649.18622895 300.84831814 646.33923837 292.17578125 643.55078125 C290.98432495 643.16501419 290.98432495 643.16501419 289.76879883 642.77145386 C272.01100137 637.04170272 254.03557941 632.25443663 235.93878174 627.72851562 C233.18012619 627.03516139 230.4263729 626.32294545 227.671875 625.61328125 C218.59108207 623.31493501 209.57281843 621.61708511 200.28540039 620.40063477 C192.92769592 619.42591067 185.65466182 618.1200683 178.36328125 616.73828125 C159.78805911 613.23551021 141.27435837 610.31137973 122.42578125 608.77734375 C121.47034424 608.69750244 120.51490723 608.61766113 119.53051758 608.53540039 C117.7003412 608.38498566 115.86945903 608.24279769 114.0378418 608.11108398 C109.29362799 607.72311945 104.90711653 606.9991637 100.3046875 605.77734375 C90.12238132 603.33284567 79.66147748 603.0941525 69.23828125 602.55078125 C67.50087173 602.45697174 67.50087173 602.45697174 65.72836304 602.36126709 C-0.68500204 598.86088202 -67.88181492 600.42233028 -133.57421875 611.30078125 C-134.32307343 611.42466217 -135.0719281 611.54854309 -135.84347534 611.67617798 C-142.61006975 612.80846636 -149.32429527 613.99798645 -155.96484375 615.74609375 C-162.8549998 617.54486936 -169.85022031 618.5898385 -176.87704468 619.68667603 C-189.79030675 621.71141062 -202.49947436 624.02483115 -215.15893555 627.3215332 C-220.79792081 628.78183611 -226.2040617 629.73404136 -232.01171875 630.23828125 C-232.01171875 630.89828125 -232.01171875 631.55828125 -232.01171875 632.23828125 C-233.25791992 632.47828857 -233.25791992 632.47828857 -234.52929688 632.72314453 C-243.75287629 634.5881123 -252.58931772 637.16275766 -261.51171875 640.11328125 C-262.82272299 640.53965847 -264.13392083 640.96544087 -265.4453125 641.390625 C-281.76781305 646.66736756 -281.76781305 646.66736756 -297.60546875 653.20703125 C-301.86045109 655.03059511 -306.25627385 656.47448806 -310.625 658 C-314.2653835 659.33102834 -317.75496031 660.85212468 -321.2421875 662.5390625 C-323.01171875 663.23828125 -323.01171875 663.23828125 -326.01171875 663.23828125 C-326.01171875 663.89828125 -326.01171875 664.55828125 -326.01171875 665.23828125 C-327.06359375 665.58439453 -327.06359375 665.58439453 -328.13671875 665.9375 C-333.51651988 667.78680664 -338.21846536 669.76831142 -342.93237305 672.95043945 C-344.98224767 674.22002835 -346.99176081 675.16877881 -349.2109375 676.10546875 C-366.2445786 683.53769828 -382.35394215 693.55053567 -395.01171875 707.23828125 C-398.2014821 710.57303385 -400.99533361 712.98518715 -405.01171875 715.23828125 C-405.96046875 715.96015625 -406.90921875 716.68203125 -407.88671875 717.42578125 C-411.8630802 719.73207089 -413.45203024 719.97371488 -418.01171875 719.23828125 C-422.13223567 717.44944956 -426.07990878 715.40755572 -430.01171875 713.23828125 C-430.01171875 712.57828125 -430.01171875 711.91828125 -430.01171875 711.23828125 C-430.57004395 711.07247559 -431.12836914 710.90666992 -431.70361328 710.73583984 C-437.20201161 709.01664846 -441.9702074 706.84712812 -446.88671875 703.86328125 C-447.95007446 703.22712891 -447.95007446 703.22712891 -449.03491211 702.578125 C-454.99049942 698.96373531 -460.80303692 695.13902163 -466.57421875 691.23828125 C-467.41388184 690.67447754 -468.25354492 690.11067383 -469.11865234 689.52978516 C-469.88902832 689.00046387 -470.6594043 688.47114258 -471.453125 687.92578125 C-472.14092041 687.45527344 -472.82871582 686.98476563 -473.53735352 686.5 C-474.02389404 686.08363281 -474.51043457 685.66726563 -475.01171875 685.23828125 C-475.01171875 684.57828125 -475.01171875 683.91828125 -475.01171875 683.23828125 C-475.72457031 682.98820313 -476.43742188 682.738125 -477.171875 682.48046875 C-492.47405425 675.78708085 -505.809943 660.62102922 -517.44921875 648.98828125 C-518.15809235 648.28090317 -518.15809235 648.28090317 -518.88128662 647.55923462 C-524.47874255 641.96043976 -529.87432923 636.26080984 -535.01171875 630.23828125 C-535.97259481 629.14333318 -536.9347845 628.04953615 -537.8984375 626.95703125 C-557.31000192 604.7415742 -573.13321143 580.23560408 -587.01171875 554.23828125 C-587.37313965 553.561604 -587.73456055 552.88492676 -588.10693359 552.18774414 C-591.26972023 546.06892548 -593.79967128 539.67857189 -596.38671875 533.30078125 C-597.07121094 531.63692383 -597.07121094 531.63692383 -597.76953125 529.93945312 C-603.78124611 515.17191198 -608.80529027 500.53117187 -612.13671875 484.92578125 C-612.30469971 484.14538483 -612.47268066 483.3649884 -612.64575195 482.5609436 C-613.65811372 477.8334176 -614.63646881 473.0998961 -615.58605957 468.359375 C-615.97041168 466.44411767 -616.36312241 464.53054236 -616.75683594 462.6171875 C-623.34141001 429.50731132 -625.07532347 385.61120656 -614.01171875 353.23828125 C-613.51930344 350.67609827 -613.06259446 348.12335507 -612.63671875 345.55078125 C-611.61763276 339.76870502 -610.20994571 334.48271261 -608.04296875 329.0078125 C-606.85350282 325.81337558 -605.96584039 322.59043367 -605.07421875 319.30078125 C-603.50611497 313.67405594 -601.55845191 308.39035886 -599.2265625 303.0390625 C-598.09948809 300.4406305 -597.07901537 297.82327442 -596.07421875 295.17578125 C-594.25732815 290.60071939 -591.9876048 286.37738927 -589.578125 282.08984375 C-587.97956904 279.17975434 -586.52176136 276.2260092 -585.07421875 273.23828125 C-582.10104951 267.27673474 -578.73866614 261.75677879 -575.01171875 256.23828125 C-574.52670898 255.51576172 -574.04169922 254.79324219 -573.54199219 254.04882812 C-562.60794626 237.83424655 -550.57688424 223.66144894 -536.82421875 209.80078125 C-535.90962891 208.87668457 -534.99503906 207.95258789 -534.05273438 207.00048828 C-528.33531196 201.31089038 -522.41913234 196.1341886 -516.01171875 191.23828125 C-515.33810303 190.71596924 -514.6644873 190.19365723 -513.97045898 189.65551758 C-504.5951864 182.42282169 -494.96800272 175.64442202 -485.01171875 169.23828125 C-484.06167969 168.61695313 -483.11164063 167.995625 -482.1328125 167.35546875 C-477.13568773 164.19698073 -472.83572935 162.31680173 -467.01171875 161.23828125 C-467.01171875 160.57828125 -467.01171875 159.91828125 -467.01171875 159.23828125 C-463.71171875 158.24828125 -460.41171875 157.25828125 -457.01171875 156.23828125 C-457.01171875 155.57828125 -457.01171875 154.91828125 -457.01171875 154.23828125 C-456.18929687 153.92375 -455.366875 153.60921875 -454.51953125 153.28515625 C-446.95897683 150.38822974 -446.95897683 150.38822974 -439.44921875 147.36328125 C-416.27871589 138.11024901 -416.27871589 138.11024901 -404.81640625 136.6328125 C-401.55234212 136.17366142 -398.40446108 135.44256825 -395.19921875 134.67578125 C-391.80524434 133.86479573 -388.47635152 133.0966477 -385.01171875 132.67578125 C-382.10170357 132.39311954 -382.10170357 132.39311954 -379.96801758 131.31079102 C-364.60245737 125.73635002 -345.94351945 126.70881176 -329.82421875 126.80078125 C-328.7541861 126.80249329 -327.68415344 126.80420532 -326.58169556 126.80596924 C-312.03583964 126.8456438 -297.65196907 127.44150293 -283.19921875 129.11328125 C-282.44605377 129.20014191 -281.69288879 129.28700256 -280.91690063 129.37649536 C-268.79443782 130.81937802 -268.79443782 130.81937802 -263.01171875 133.23828125 C-252.19626024 135.06756089 -252.19626024 135.06756089 -242.07421875 131.92578125 C-240.0836973 130.39898568 -239.13733273 129.48950921 -238.01171875 127.23828125 C-237.35171875 127.23828125 -236.69171875 127.23828125 -236.01171875 127.23828125 C-235.70234375 126.06265625 -235.70234375 126.06265625 -235.38671875 124.86328125 C-230.73512301 112.59998338 -230.73512301 112.59998338 -226.01171875 110.23828125 C-225.07245922 108.56568486 -224.13486313 106.89212288 -223.20751953 105.21289062 C-221.1575005 101.8277224 -218.566952 98.94317327 -215.94921875 95.98828125 C-215.09420776 95.01375 -215.09420776 95.01375 -214.22192383 94.01953125 C-206.70534791 85.53061517 -198.75641249 77.46918767 -190.01171875 70.23828125 C-189.50721191 69.81998047 -189.00270508 69.40167969 -188.48291016 68.97070312 C-176.17155979 58.81074799 -163.47145196 48.74691442 -149.2421875 41.40625 C-146.33336217 39.88306476 -143.71220222 38.10290079 -141.01171875 36.23828125 C-136.94360098 33.52620274 -132.68759065 31.88516306 -128.12109375 30.203125 C-125.84570178 29.42904306 -125.84570178 29.42904306 -125.01171875 27.23828125 C-122.578125 26.16796875 -122.578125 26.16796875 -119.57421875 25.11328125 C-118.09115234 24.58347656 -118.09115234 24.58347656 -116.578125 24.04296875 C-114.01171875 23.23828125 -114.01171875 23.23828125 -112.01171875 23.23828125 C-112.01171875 22.57828125 -112.01171875 21.91828125 -112.01171875 21.23828125 C-109.3866655 20.28293919 -106.76140036 19.32819037 -104.13574219 18.37451172 C-102.18499335 17.66500991 -100.23499237 16.95344447 -98.28613281 16.23876953 C-85.54981276 11.5844803 -72.88877681 7.54377458 -59.60253906 4.78955078 C-57.08779352 4.25446829 -54.59575963 3.65426674 -52.09765625 3.046875 C-34.95237934 -0.80153066 -17.4710506 -0.1920408 0 0 Z " fill="#45D19F" transform="translate(723.01171875,149.76171875)"/>
<path d="M0 0 C0.76539597 -0.00095673 1.53079193 -0.00191345 2.31938171 -0.00289917 C3.94770387 -0.00358096 5.57602874 -0.00172678 7.2043457 0.00244141 C9.65127003 0.00770927 12.09800391 0.00253888 14.54492188 -0.00390625 C39.40128808 -0.01721121 39.40128808 -0.01721121 45.19921875 2.6328125 C48.45448512 4.08642201 51.28217491 4.25180401 54.83178711 4.29150391 C65.25398212 4.43761523 72.50036458 7.95552499 81.38671875 13.1328125 C82.5509626 13.78326009 83.71628063 14.43178979 84.8828125 15.078125 C89.71453944 17.81038675 94.08430748 20.62344366 98.38671875 24.1328125 C99.70366043 25.14502579 101.02431845 26.15241326 102.34765625 27.15625 C103.42660156 27.97609375 103.42660156 27.97609375 104.52734375 28.8125 C106.00820746 29.9360924 107.48996853 31.05850315 108.97265625 32.1796875 C122.24339807 42.27493039 122.24339807 42.27493039 126.38671875 48.8828125 C128.72894703 52.56666196 131.11104322 56.10452314 133.76171875 59.5703125 C137.96624416 65.47597923 140.83596077 72.07419033 143.83544922 78.64624023 C146.04061727 83.45442504 148.42218069 87.73817637 151.38671875 92.1328125 C152.39300779 94.46344049 153.3930015 96.79679656 154.38671875 99.1328125 C155.64205038 101.1970189 156.93472738 103.2389268 158.26171875 105.2578125 C161.71131052 110.73918217 164.15459008 116.11583441 166.28125 122.2578125 C167.6899369 125.92139397 169.47370845 128.99270827 171.92578125 132.0546875 C173.77922934 134.69114307 174.68977925 137.34684961 175.76171875 140.3828125 C177.19908105 144.26757548 178.58591279 147.72965192 180.94921875 151.1328125 C184.40905319 156.32795331 185.73205657 162.17354042 187.38671875 168.1328125 C187.81389779 169.54763481 188.24369976 170.96166717 188.67578125 172.375 C191.14763297 180.6229318 192.88803782 188.57509404 193.71923828 197.14819336 C194.23784519 202.3765602 195.28593304 207.24643679 196.66796875 212.3046875 C197.66795395 216.23941187 198.23702629 220.21216284 198.84765625 224.22265625 C199.36474742 227.01419918 200.1311975 229.56275914 201.01171875 232.2578125 C203.85627804 242.15630417 202.88594256 253.35005529 201.59765625 263.46484375 C201.36750813 266.37579132 201.41018244 269.24888008 201.46923828 272.16650391 C201.61222865 279.62665681 201.02840214 286.24956651 199.20751953 293.5402832 C198.44121111 296.89430714 197.91378304 300.17598161 197.47265625 303.5859375 C196.40080085 311.34996571 194.92461768 319.01246308 193.38671875 326.6953125 C191.67791917 335.25513262 190.06173263 343.78513342 188.9140625 352.44116211 C188.40668844 355.03088388 187.63111198 356.83108565 186.38671875 359.1328125 C185.87918623 361.24660179 185.42677456 363.37393736 185.01171875 365.5078125 C180.06171875 389.4578125 180.06171875 389.4578125 174.38671875 395.1328125 C173.58239627 397.11624646 172.9309041 399.126303 172.265625 401.16015625 C171.28440505 403.36244991 170.11393381 404.47609601 168.38671875 406.1328125 C167.65877901 407.29596177 166.970075 408.48465887 166.32421875 409.6953125 C164.38671875 413.1328125 164.38671875 413.1328125 162.38671875 415.1328125 C162.05671875 416.2878125 161.72671875 417.4428125 161.38671875 418.6328125 C160.38671875 422.1328125 160.38671875 422.1328125 158.38671875 424.1328125 C158.13664145 426.67471252 158.13664145 426.67471252 158.38671875 429.1328125 C158.71671875 429.4628125 159.04671875 429.7928125 159.38671875 430.1328125 C164.15196673 429.76625496 167.54288664 429.01568658 171.38671875 426.1328125 C172.40472451 424.81317541 173.4092024 423.48271604 174.38671875 422.1328125 C175.04671875 422.1328125 175.70671875 422.1328125 176.38671875 422.1328125 C176.64195312 421.53855469 176.8971875 420.94429687 177.16015625 420.33203125 C178.51391401 417.90475222 179.85781875 416.68302067 182.01171875 414.9453125 C189.56139566 408.52468637 195.4194206 400.9340509 201.2109375 392.9296875 C203.38671875 390.1328125 203.38671875 390.1328125 205.9140625 387.84765625 C209.20694991 384.23224274 210.57789999 380.48749508 212.26171875 375.9453125 C212.950371 374.1431719 213.63917618 372.34108974 214.328125 370.5390625 C214.6698877 369.63285156 215.01165039 368.72664063 215.36376953 367.79296875 C216.3173954 365.31308629 217.32015196 362.86242849 218.3515625 360.4140625 C221.70384831 352.36822771 224.06430407 344.81782491 225.32324219 336.18383789 C226.18895136 330.49346489 228.03041167 325.57423594 230.2578125 320.26171875 C231.7958471 315.99886161 232.35552837 311.79269254 232.83203125 307.30078125 C233.38671875 304.1328125 233.38671875 304.1328125 234.84765625 300.46484375 C236.87228302 295.32987646 237.31350392 290.08896851 237.88671875 284.6328125 C239.05083179 273.55218099 239.05083179 273.55218099 240.90625 269.109375 C242.92468875 264.19372145 243.22011112 259.27297329 243.57421875 254.0078125 C243.65389893 252.89140381 243.7335791 251.77499512 243.81567383 250.62475586 C244.56667883 238.32553653 244.57099273 226.01370293 244.57421875 213.6953125 C244.57521576 212.65928894 244.57621277 211.62326538 244.57723999 210.55584717 C244.57691613 207.58273114 244.56789239 204.60980305 244.5546875 201.63671875 C244.55287476 200.28679085 244.55287476 200.28679085 244.55102539 198.90959167 C244.54159912 197.65799004 244.54159912 197.65799004 244.53198242 196.38110352 C244.52817062 195.65423843 244.52435883 194.92737335 244.52043152 194.17848206 C244.38155353 192.05378987 243.92762047 190.18770435 243.38671875 188.1328125 C243.12339096 184.89764247 242.9439873 181.66275598 242.765625 178.421875 C242.38079869 175.08142392 241.48737683 172.29775701 240.38671875 169.1328125 C240.26171875 165.7578125 240.26171875 165.7578125 240.38671875 163.1328125 C239.72671875 163.1328125 239.06671875 163.1328125 238.38671875 163.1328125 C236.30811819 155.90930701 234.60540549 148.66815967 233.1328125 141.296875 C232.48407847 138.17854064 232.48407847 138.17854064 231.32421875 135.53125 C230.03679131 132.23758148 229.99779531 129.13568349 229.828125 125.6328125 C229.29313844 122.60280012 227.99615733 120.74271289 226.38671875 118.1328125 C225.65982616 116.06972031 224.99568249 113.98373739 224.38671875 111.8828125 C223.25245323 108.04873629 222.11290659 104.23041133 220.82421875 100.4453125 C219.22260458 95.71087062 217.79793014 90.92692779 216.38671875 86.1328125 C215.72671875 86.1328125 215.06671875 86.1328125 214.38671875 86.1328125 C214.05671875 83.4928125 213.72671875 80.8528125 213.38671875 78.1328125 C242.90757236 72.8171604 272.1920516 74.6259822 301.38671875 81.1328125 C303.02640625 81.45185547 303.02640625 81.45185547 304.69921875 81.77734375 C321.62405667 85.12705125 340.02907341 89.97164251 355.30859375 98.125 C357.87785557 99.3709954 360.51190275 100.29226931 363.19921875 101.2578125 C378.39905439 107.00387753 392.55695888 115.6826268 406.38671875 124.1328125 C407.0091748 124.5129248 407.63163086 124.89303711 408.27294922 125.28466797 C416.48293486 130.33781 424.19418533 135.85114308 431.74365234 141.84130859 C433.39820051 143.14183754 435.07079385 144.41510777 436.75 145.68359375 C445.53021393 152.36310463 453.59154172 159.66740875 461.52197266 167.33105469 C463.23323863 168.98451671 464.95568419 170.62547501 466.6796875 172.265625 C473.46930165 178.80361196 479.38454139 185.79796698 485.03222656 193.33837891 C486.36539462 195.10456225 487.72799149 196.8440657 489.09765625 198.58203125 C499.66906706 212.21632887 508.56140389 227.86543948 514.38671875 244.1328125 C514.72832031 245.05191406 515.06992188 245.97101563 515.421875 246.91796875 C516.99827998 251.37146267 518.34551133 255.80550359 519.34765625 260.421875 C519.59310181 261.54396362 519.59310181 261.54396362 519.84350586 262.6887207 C520.15480526 264.15004135 520.45091212 265.6147153 520.72875977 267.08276367 C521.69617445 271.68218837 523.25507536 274.54395394 526.10473633 278.24438477 C528.58308319 281.89512043 529.85558937 286.04113614 531.26171875 290.1953125 C531.59977539 291.1855542 531.93783203 292.1757959 532.28613281 293.19604492 C536.6006822 306.27767003 539.60714449 319.65432828 542.38671875 333.1328125 C542.61407715 334.19242188 542.84143555 335.25203125 543.07568359 336.34375 C546.90680835 354.67189795 546.84529386 372.95347888 546.625 391.58984375 C546.61741669 392.37830688 546.60983337 393.16677002 546.60202026 393.97912598 C546.53605442 397.82858797 546.1853265 401.37554562 545.38671875 405.1328125 C545.30880988 406.97129418 545.2787826 408.81224077 545.2890625 410.65234375 C545.29228516 411.67392578 545.29550781 412.69550781 545.29882812 413.74804688 C545.30720703 414.80314453 545.31558594 415.85824219 545.32421875 416.9453125 C545.33098633 418.55696289 545.33098633 418.55696289 545.33789062 420.20117188 C545.34964146 422.84510933 545.36607088 425.48893202 545.38671875 428.1328125 C547.03671875 428.4628125 548.68671875 428.7928125 550.38671875 429.1328125 C550.86570588 434.89944189 549.15308031 439.43732794 547.19921875 444.7578125 C546.71449097 446.10057251 546.71449097 446.10057251 546.2199707 447.47045898 C545.28862136 450.029643 544.34127514 452.58220816 543.38671875 455.1328125 C542.77957031 456.77056641 542.77957031 456.77056641 542.16015625 458.44140625 C538.69626962 467.22572306 534.14377917 475.50051228 529.65234375 483.79150391 C528.49966244 485.92387539 527.36390349 488.06439552 526.23046875 490.20703125 C516.31173281 508.67360206 503.59359961 525.34407011 489.5 540.80078125 C487.61295338 542.88315986 485.77613642 544.99784314 483.94921875 547.1328125 C477.33607487 554.7103732 470.09407582 561.68072531 462.38671875 568.1328125 C461.8855957 568.56368164 461.38447266 568.99455078 460.86816406 569.43847656 C443.15941685 584.63346047 423.6035006 596.99468004 402.95117188 607.77856445 C399.24273579 609.73693222 395.57726324 611.7720399 391.91088867 613.80786133 C387.86300506 615.9326185 383.65742311 617.52040371 379.38671875 619.1328125 C378.29617188 619.58011719 377.205625 620.02742187 376.08203125 620.48828125 C374.37660156 621.17857422 374.37660156 621.17857422 372.63671875 621.8828125 C371.59 622.31078125 370.54328125 622.73875 369.46484375 623.1796875 C366.26503293 624.17049186 363.71470126 624.31216485 360.38671875 624.1328125 C360.09796875 623.1428125 359.80921875 622.1528125 359.51171875 621.1328125 C357.52109042 616.40507023 353.81412968 613.98980395 349.8125 610.97265625 C346.53871244 608.48963864 343.74040906 605.6693288 341.02734375 602.58984375 C336.83317188 598.05307863 332.07301891 594.90129812 326.8515625 591.68066406 C322.75277152 589.11568381 319.10463022 586.31894817 315.44921875 583.1328125 C307.26315652 576.08950258 298.02936794 570.94074453 288.38671875 566.1328125 C287.00115679 565.31716093 285.62601681 564.4835535 284.26171875 563.6328125 C269.79383337 554.93910559 255.51509165 547.61017946 239.59155273 541.94628906 C237.55974413 541.19665046 235.57555923 540.38672229 233.58984375 539.5234375 C230.89534497 538.35363071 228.22445129 537.336377 225.44921875 536.3828125 C220.67512269 534.67777819 216.07283429 532.70081174 211.44921875 530.6328125 C202.05964758 526.46567975 192.88205737 523.09543098 182.6640625 521.625 C180.38671875 521.1328125 180.38671875 521.1328125 177.38671875 519.1328125 C175.49926584 518.51894081 175.49926584 518.51894081 173.4375 518.09765625 C172.67115234 517.92814453 171.90480469 517.75863281 171.11523438 517.58398438 C170.31794922 517.41447266 169.52066406 517.24496094 168.69921875 517.0703125 C167.92126953 516.89693359 167.14332031 516.72355469 166.34179688 516.54492188 C162.56102992 515.72191923 158.84174189 515.03920019 154.9921875 514.63671875 C151.38671875 514.1328125 151.38671875 514.1328125 148.38671875 512.1328125 C145.51146439 511.48069295 142.66028144 510.90793479 139.76171875 510.3828125 C131.60898321 508.84089191 123.56492009 507.00291488 115.51171875 505.0078125 C107.77421283 503.10031047 100.21287124 501.50510952 92.296875 500.5625 C89.39444301 500.133953 86.75209433 499.42708669 83.94921875 498.5703125 C79.70302307 497.30912346 75.81579306 496.91979823 71.39453125 496.75 C63.88489511 496.34539953 56.94705133 494.85309443 49.69921875 492.8203125 C48.43899902 492.47492432 47.1787793 492.12953613 45.88037109 491.77368164 C35.33046715 488.83934373 24.90786963 485.50501897 14.51171875 482.0703125 C13.77079987 481.82727386 13.02988098 481.58423523 12.26651001 481.33383179 C1.68778501 477.84583091 -8.47823824 473.74824005 -18.61328125 469.1328125 C-19.86670371 468.56825199 -21.12028146 468.00403613 -22.37402344 467.44018555 C-37.4564362 460.61161313 -52.38449739 453.12034868 -66.30078125 444.1328125 C-67.33307861 443.46620605 -67.33307861 443.46620605 -68.38623047 442.78613281 C-71.84505463 440.49077118 -74.69215535 438.09917707 -77.61328125 435.1328125 C-78.78890625 434.5759375 -79.96453125 434.0190625 -81.17578125 433.4453125 C-87.05481218 430.64163417 -91.73152749 426.38319278 -96.61328125 422.1328125 C-97.1144043 421.7001709 -97.61552734 421.2675293 -98.13183594 420.82177734 C-105.43364637 414.48317458 -111.6637215 407.78544773 -117.61328125 400.1328125 C-118.26683594 399.34519531 -118.92039062 398.55757812 -119.59375 397.74609375 C-147.33516932 364.24597661 -165.0398383 321.02871479 -170.61328125 278.1328125 C-170.87492065 276.27619995 -170.87492065 276.27619995 -171.1418457 274.38208008 C-172.69286241 262.90529879 -173.05467032 251.51792147 -173.05078125 239.9453125 C-173.05151642 238.98570618 -173.05225159 238.02609985 -173.05300903 237.03741455 C-173.01879641 219.93003867 -171.51503958 203.83872815 -167.61328125 187.1328125 C-167.35095703 186.00262695 -167.08863281 184.87244141 -166.81835938 183.70800781 C-162.26099555 164.62063152 -156.17807775 145.81646242 -147.61328125 128.1328125 C-146.90947843 126.59465439 -146.2078874 125.05548341 -145.5078125 123.515625 C-133.13135155 96.55379419 -116.68263675 72.46477618 -97.55078125 49.8828125 C-96.88187866 49.08786377 -96.88187866 49.08786377 -96.19946289 48.27685547 C-94.70144024 46.53214047 -93.16474487 44.83023416 -91.61328125 43.1328125 C-90.90413574 42.3392334 -90.19499023 41.5456543 -89.46435547 40.72802734 C-83.27967618 34.12995697 -76.97291993 30.15331553 -68.86328125 26.2578125 C-67.07608029 25.36672713 -65.28889525 24.47560361 -63.50352478 23.58085632 C-62.30014784 22.97852302 -61.09560838 22.37850654 -59.88990784 21.78083801 C-53.13320229 18.42572821 -46.54298154 14.78030723 -39.94433594 11.12744141 C-37.50707237 9.78365026 -35.06244364 8.45477835 -32.61328125 7.1328125 C-31.3296167 6.42874268 -31.3296167 6.42874268 -30.02001953 5.71044922 C-25.11936346 3.11739708 -21.26188413 1.51859622 -15.61328125 1.3828125 C-10.1985584 1.20402448 -5.46838568 -0.01503259 0 0 Z " fill="#DCDBFD" transform="translate(777.61328125,235.8671875)"/>
<path d="M0 0 C0.99354744 0.00023918 1.98709488 0.00047836 3.01074982 0.00072479 C53.51818643 0.01606931 103.48827359 2.38746343 153.4375 10.375 C154.31794983 10.51548767 155.19839966 10.65597534 156.10552979 10.80072021 C177.70033748 14.26760767 199.17782491 18.20867036 220.4375 23.375 C221.54834961 23.64280273 222.65919922 23.91060547 223.80371094 24.18652344 C239.9696319 28.12125626 255.75736242 32.81470952 271.4375 38.375 C272.18 38.63635742 272.9225 38.89771484 273.6875 39.16699219 C278.31058118 40.8065224 282.88460559 42.54997292 287.4375 44.375 C288.19998047 44.67954102 288.96246094 44.98408203 289.74804688 45.29785156 C312.94197992 54.66214832 339.37630791 65.42289493 356.4375 84.375 C357.241875 85.15875 358.04625 85.9425 358.875 86.75 C361.29531602 89.22934811 363.69578752 91.71940887 366.0625 94.25 C366.81789063 95.05179688 367.57328125 95.85359375 368.3515625 96.6796875 C373.8108241 103.73378956 373.84327203 109.89296159 373.70214844 118.54199219 C373.6905549 120.37063702 373.6905549 120.37063702 373.67872715 122.23622417 C373.6544061 125.59270292 373.61646765 128.94851485 373.57259583 132.30476069 C373.52898219 135.89465436 373.5029875 139.48467966 373.47489929 143.07472229 C373.41783837 150.02242026 373.34484269 156.969861 373.26647002 163.91734761 C373.1769655 171.91688958 373.10463536 179.91655813 373.03346765 187.91628087 C372.90425544 202.38887315 372.7597352 216.86127048 372.60616529 231.33362305 C372.45132552 245.92627244 372.30888677 260.51900639 372.17116165 275.11182785 C371.94651582 298.8664394 371.70157752 322.62079524 371.4375 346.375 C367.97928372 345.00951371 364.64919099 343.53651031 361.32421875 341.87109375 C347.84293516 335.20401817 334.30159093 329.34853455 320.12060547 324.33618164 C318.388082 323.71553152 316.66236443 323.07538116 314.94580078 322.41186523 C306.17676276 319.05456203 297.14104058 316.78322466 288.0625 314.4375 C286.34828178 313.99147175 284.63408923 313.5453448 282.91992188 313.09912109 C278.09530181 311.84651916 273.26738263 310.60714112 268.4375 309.375 C267.29635742 309.08383301 266.15521484 308.79266602 264.97949219 308.49267578 C252.82860658 305.42351219 240.61278553 302.99372402 228.2590332 300.88989258 C225.78452932 300.43832827 223.32656935 299.94008417 220.86328125 299.43188477 C215.12708487 298.27992077 209.3637922 297.40652512 203.57421875 296.5703125 C202.44573517 296.40628433 201.31725159 296.24225616 200.15457153 296.07325745 C171.2987109 291.90952373 142.51750963 288.45846768 113.4375 286.375 C112.45573792 286.30430298 111.47397583 286.23360596 110.46246338 286.1607666 C97.00642122 285.19725485 83.54667094 284.2773966 70.07711792 283.52316284 C68.35814407 283.42667613 66.63932002 283.32746982 64.92068481 283.22512817 C44.50888924 282.03179113 24.06360859 282.1744841 3.625 282.1875 C2.2190753 282.18790031 2.2190753 282.18790031 0.78474808 282.18830872 C-25.84151863 282.19783093 -52.41777629 282.24115415 -78.98626709 284.18817139 C-81.81669881 284.39343452 -84.6477565 284.5880599 -87.47900391 284.78173828 C-148.10372757 288.96336332 -209.35877059 295.17578946 -268.5625 309.375 C-270.04737915 309.7296936 -270.04737915 309.7296936 -271.56225586 310.09155273 C-283.30995468 312.92446186 -294.94077352 315.90985892 -306.42480469 319.68457031 C-308.85142319 320.46831599 -311.28784721 321.2157003 -313.7265625 321.9609375 C-332.9173701 327.85979997 -350.5338153 334.66073568 -367.5625 345.375 C-369.51762133 346.58852358 -371.47540188 347.79778959 -373.4375 349 C-374.17742187 349.46664063 -374.91734375 349.93328125 -375.6796875 350.4140625 C-377.5625 351.375 -377.5625 351.375 -380.5625 351.375 C-380.65516678 339.33572573 -380.72624833 327.29653626 -380.76974869 315.25697803 C-380.79062637 309.66655191 -380.81894772 304.07636972 -380.86425781 298.48608398 C-380.9077085 293.0914692 -380.93163575 287.69708911 -380.94200897 282.30231285 C-380.94940169 280.24379468 -380.96383788 278.18528941 -380.98542023 276.12687111 C-381.01444355 273.24421015 -381.01845641 270.36251981 -381.01660156 267.47973633 C-381.03098267 266.62809402 -381.04536377 265.77645172 -381.06018066 264.89900208 C-381.03225651 260.89019887 -380.8907703 258.88938351 -378.68475342 255.43266296 C-372.43301539 249.37119561 -365.0555479 244.88983186 -357.375 240.875 C-354.39278141 239.28448342 -351.5176159 237.56012211 -348.625 235.8125 C-342.80196442 232.39822012 -336.85146015 229.8018936 -330.5625 227.375 C-329.55703125 226.97667969 -328.5515625 226.57835937 -327.515625 226.16796875 C-324.20898341 224.87245619 -320.8889622 223.61871076 -317.5625 222.375 C-316.345625 221.91222656 -315.12875 221.44945312 -313.875 220.97265625 C-302.07621548 216.58483636 -289.98636669 213.42621117 -277.81567383 210.24975586 C-274.46572804 209.34897869 -271.14071462 208.38014174 -267.8125 207.40234375 C-259.86040966 205.11795892 -251.8360962 203.29801926 -243.75 201.5625 C-242.5670636 201.30779434 -242.5670636 201.30779434 -241.36022949 201.04794312 C-196.84490972 191.51503309 -151.91099934 185.63604928 -106.50097656 182.63623047 C-103.36141158 182.42799004 -100.2237976 182.20452086 -97.0859375 181.97265625 C-72.04458593 180.27218615 -43.68801245 178.54259479 -19.05859375 183.921875 C-10.34742364 185.50324547 -0.19287588 185.68481694 7.7734375 181.54296875 C9.5129092 180.39792324 9.5129092 180.39792324 11.0390625 178.73828125 C12.4375 177.375 12.4375 177.375 14.4375 177.375 C19.37808286 167.62736355 22.48122261 159.48882541 19.1875 148.625 C16.52292473 141.61815391 12.89998164 137.07539385 6.4375 133.375 C-0.77571335 130.18915329 -8.30714776 129.45314203 -16.0859375 128.72265625 C-18.05208511 128.53438011 -18.05208511 128.53438011 -20.05795288 128.34230042 C-34.35997779 127.04105169 -48.66857841 126.78216671 -63.02214432 126.8087616 C-65.23017743 126.81257368 -67.43817435 126.81133237 -69.64620972 126.80993652 C-115.36497502 126.83061353 -160.79480961 132.1999468 -205.80444336 140.07543945 C-207.92547396 140.44632595 -210.04759363 140.81044705 -212.16992188 141.17382812 C-220.26830079 142.56968636 -228.3330567 144.09144596 -236.38574219 145.73046875 C-239.08714146 146.27855468 -241.79114553 146.80293438 -244.5 147.3125 C-250.64428258 148.55126665 -256.70744395 150.11078365 -262.77734375 151.66650391 C-266.09882342 152.5114315 -269.42456115 153.33876282 -272.75 154.16796875 C-286.38218178 157.58800029 -299.82406958 161.23426121 -313.109375 165.85546875 C-316.99380306 167.20445768 -320.90648488 168.35639106 -324.875 169.4375 C-330.0093398 170.86506703 -335.00489456 172.52766874 -340 174.375 C-340.97610229 174.7309021 -340.97610229 174.7309021 -341.97192383 175.09399414 C-346.45811718 176.79123891 -350.43642607 178.92900408 -354.5625 181.375 C-357.19680627 182.77761727 -359.87293442 184.08175941 -362.5625 185.375 C-363.46742188 185.81328125 -364.37234375 186.2515625 -365.3046875 186.703125 C-374.30894766 190.9490363 -374.30894766 190.9490363 -379.5625 191.375 C-380.33502904 185.28443394 -380.6846752 179.4086062 -380.58422852 173.27514648 C-380.57462097 172.41551804 -380.56501343 171.55588959 -380.55511475 170.67021179 C-380.52244345 167.86208052 -380.4819925 165.0541208 -380.44140625 162.24609375 C-380.41707388 160.28598107 -380.39323194 158.32586225 -380.36985779 156.36573792 C-380.30732681 151.23160754 -380.23817402 146.09758732 -380.16760254 140.96356201 C-380.0966375 135.71469089 -380.03198969 130.4657423 -379.96679688 125.21679688 C-379.83818454 114.93611274 -379.70257063 104.65553396 -379.5625 94.375 C-378.0775 93.88 -378.0775 93.88 -376.5625 93.375 C-375.87749264 92.05099579 -375.21253171 90.7165219 -374.5625 89.375 C-372.99365234 87.8828125 -372.99365234 87.8828125 -371.1484375 86.5 C-370.46910156 85.98953125 -369.78976562 85.4790625 -369.08984375 84.953125 C-368.02443359 84.17195312 -368.02443359 84.17195312 -366.9375 83.375 C-365.90689453 82.59382812 -365.90689453 82.59382812 -364.85546875 81.796875 C-360.95668497 78.90021763 -357.0887948 76.51212435 -352.70556641 74.4296875 C-348.37390836 72.29790774 -344.23766749 69.79503969 -340.0625 67.375 C-332.40817531 62.93834695 -324.82760118 58.58920602 -316.5625 55.375 C-315.5415625 54.818125 -315.5415625 54.818125 -314.5 54.25 C-312.5625 53.375 -312.5625 53.375 -308.5625 53.375 C-308.5625 52.715 -308.5625 52.055 -308.5625 51.375 C-307.325 50.983125 -306.0875 50.59125 -304.8125 50.1875 C-301.11085523 48.95986044 -297.54605631 47.54645592 -293.96484375 46.00390625 C-288.02217403 43.51180428 -282.02025193 41.43019788 -275.875 39.5 C-274.8120874 39.16266846 -273.7491748 38.82533691 -272.65405273 38.4777832 C-261.94081957 35.11431714 -251.13409515 32.10623359 -240.30395508 29.14575195 C-237.60004248 28.38555496 -234.91797687 27.57090626 -232.234375 26.7421875 C-228.58850327 25.63664171 -225.03056594 24.83942597 -221.25 24.3125 C-218.36828715 23.90852156 -215.9008452 23.51480163 -213.20849609 22.40234375 C-210.58945513 21.38546569 -208.23330197 20.85390744 -205.46484375 20.41015625 C-204.50433105 20.25135986 -203.54381836 20.09256348 -202.55419922 19.92895508 C-201.54631348 19.7667749 -200.53842773 19.60459473 -199.5 19.4375 C-193.2432569 18.3998983 -187.06027837 17.36858585 -180.9375 15.6875 C-175.92198295 14.33410651 -171.08743898 13.98472996 -165.9140625 13.67578125 C-162.55573253 13.37439266 -159.41737972 12.78343092 -156.125 12.0625 C-136.19703169 7.90747827 -115.81002479 6.09746878 -95.5625 4.25 C-94.69001617 4.16968536 -93.81753235 4.08937073 -92.91860962 4.00662231 C-87.48047104 3.51030432 -82.04025824 3.05004434 -76.59664917 2.61785889 C-74.5223032 2.45182442 -72.44835753 2.28073174 -70.37478638 2.10528564 C-46.91873158 0.14591091 -23.52350129 -0.02513343 0 0 Z " fill="#DCDBFD" transform="translate(728.5625,808.625)"/>
<path d="M0 0 C5.10136523 0.01139333 10.20252158 0.0045979 15.30387974 -0.00687981 C41.58052489 -0.05692398 67.74498943 0.59633633 93.97701263 2.13519287 C95.96021471 2.25121603 97.9436308 2.36356538 99.92706299 2.47558594 C107.01865446 2.8792986 114.10300539 3.34620707 121.18554688 3.88574219 C122.75813263 4.00496033 122.75813263 4.00496033 124.36248779 4.12658691 C306.79856504 18.30378934 306.79856504 18.30378934 360.12304688 67.26074219 C360.72761719 67.79957031 361.3321875 68.33839844 361.95507812 68.89355469 C367.41989414 74.39825987 368.78255056 81.73448949 369.34960938 89.27246094 C368.62719062 98.80091515 361.24957873 107.39401597 355.12304688 114.26074219 C354.49140625 114.98648437 353.85976562 115.71222656 353.20898438 116.45996094 C316.35388753 156.08986237 248.72749632 170.41045316 197.90283203 179.57714844 C194.19578229 180.24758761 190.49326973 180.93936227 186.79101562 181.63574219 C172.76271207 184.24476947 158.74793731 186.31600044 144.57617188 187.9609375 C141.45458261 188.34243746 138.35349792 188.82850121 135.24804688 189.32324219 C127.72954842 190.42997979 120.16490234 190.9388295 112.58837891 191.47583008 C111.55825684 191.54922607 110.52813477 191.62262207 109.46679688 191.69824219 C108.39229782 191.77463425 107.31779877 191.85102631 106.21073914 191.92973328 C103.31416615 192.15097524 100.42906035 192.43260574 97.54081726 192.74383545 C82.73105785 194.30156642 68.05542281 194.55473117 53.17382812 194.52636719 C50.62110864 194.52772049 48.0683894 194.52966649 45.51567078 194.53216553 C40.19165328 194.5350925 34.86770564 194.53110271 29.54370117 194.52148438 C24.16150262 194.51186961 18.77941516 194.51180391 13.3972168 194.52148438 C-15.74951908 194.57159404 -44.81025843 194.61764359 -73.87695312 192.26074219 C-75.01033112 192.17159546 -76.14370911 192.08244873 -77.31143188 191.99060059 C-84.52955756 191.41275275 -91.73507574 190.73887893 -98.93945312 190.01074219 C-100.53451691 189.85217239 -100.53451691 189.85217239 -102.1618042 189.69039917 C-123.83118656 187.52322065 -145.37568253 184.71238057 -166.87695312 181.26074219 C-167.59981506 181.14535095 -168.322677 181.02995972 -169.06744385 180.91107178 C-332.77824844 154.64138477 -332.77824844 154.64138477 -373.71679688 99.79589844 C-376.23699428 95.99560076 -377.80479676 93.28897038 -378.12695312 88.69824219 C-371.37203703 70.12222292 -350.18338028 60.28393828 -333.36914062 52.28808594 C-264.63636891 20.74762491 -185.20450714 10.03453487 -110.43945312 4.13574219 C-109.42919067 4.05497437 -108.41892822 3.97420654 -107.37805176 3.89099121 C-71.6045197 1.06864191 -35.87782166 -0.08067725 0 0 Z " fill="#DCDBFD" transform="translate(724.876953125,1146.7392578125)"/>
<path d="M0 0 C-1.25997244 2.61694844 -2.62061132 5.0383974 -4.25 7.44140625 C-23.87911824 36.80757653 -37.39125435 70.44637855 -41.625 105.6875 C-41.86345283 107.6293685 -42.10543733 109.57080777 -42.3515625 111.51171875 C-42.45291504 112.35178467 -42.55426758 113.19185059 -42.65869141 114.05737305 C-43 116 -43 116 -44 117 C-46.30808084 131.22768184 -46.40077469 145.93340357 -46.375 160.3125 C-46.37578552 161.25859131 -46.37657104 162.20468262 -46.37738037 163.17944336 C-46.3629943 177.86302627 -45.58172841 192.39037488 -44.125 207 C-44.03804871 207.8815274 -43.95109741 208.76305481 -43.86151123 209.67129517 C-43.6101862 212.15739019 -43.34459626 214.6413417 -43.0703125 217.125 C-42.99310974 217.853134 -42.91590698 218.58126801 -42.83636475 219.33146667 C-42.37978382 223.19971539 -41.55310865 226.43823563 -40 230 C-39.65327458 232.2839849 -39.36709503 234.57756762 -39.125 236.875 C-38.26938716 243.94452252 -36.68346139 250.61514487 -34.71728516 257.46630859 C-33.83512928 260.5823786 -32.98596234 263.7068318 -32.13671875 266.83203125 C-23.04965631 300.6118201 -23.04965631 300.6118201 -10 333 C-9.1208722 334.91477686 -8.24588246 336.83145893 -7.375 338.75 C-6.99085938 339.59046875 -6.60671875 340.4309375 -6.2109375 341.296875 C-5.32378119 343.27723682 -4.46435018 345.27008186 -3.62109375 347.26953125 C10.16764815 379.51008515 29.87467067 409.90384211 52 437 C52.47743652 437.5878125 52.95487305 438.175625 53.44677734 438.78125 C59.48206417 446.1750647 65.87242298 453.19178036 72.49414062 460.06518555 C73.06583984 460.66500244 73.63753906 461.26481934 74.2265625 461.8828125 C74.73783691 462.41277832 75.24911133 462.94274414 75.77587891 463.48876953 C77 465 77 465 78 468 C69.58925609 467.70174667 58.28993953 467.28993953 52 461 C48.53298446 460.12124633 45.0667815 459.3752036 41.56054688 458.67578125 C37.82560697 457.8705269 34.67585221 456.97858072 31.3828125 455.0078125 C27.96233805 452.97764637 24.87186946 451.8496118 21.0625 450.75 C19.34740234 450.24726562 19.34740234 450.24726562 17.59765625 449.734375 C16.74042969 449.49203125 15.88320313 449.2496875 15 449 C15 448.34 15 447.68 15 447 C13.72962891 446.83951172 13.72962891 446.83951172 12.43359375 446.67578125 C8.72894864 445.94665315 5.50113449 444.68581474 2.0625 443.1875 C-3.82635487 440.68567223 -9.75345677 438.3011925 -15.7265625 436.0078125 C-16.40866287 435.74573502 -17.09076324 435.48365753 -17.79353333 435.21363831 C-20.56644756 434.14959539 -23.33994021 433.08716828 -26.11618042 432.03182983 C-33.25086462 429.31903815 -40.23905475 426.5607645 -47 423 C-48.16917969 422.44441406 -49.33835937 421.88882812 -50.54296875 421.31640625 C-67.14541755 413.38708216 -82.75685517 403.64632837 -97 392 C-97.89203125 391.29875 -98.7840625 390.5975 -99.703125 389.875 C-128.31830822 367.11672562 -149.94669382 339.20387248 -167 307 C-167.58652344 305.90945313 -168.17304688 304.81890625 -168.77734375 303.6953125 C-172.03476965 297.4456964 -174.54685461 291.08962156 -176.82421875 284.421875 C-177.67256218 281.95294196 -178.55556796 279.52218222 -179.48828125 277.0859375 C-187.63393331 255.50215826 -190.18737073 234.09752494 -190.18530273 211.16137695 C-190.18749894 208.43880792 -190.20575246 205.71663897 -190.22460938 202.99414062 C-190.25100012 194.63522931 -190.10615541 186.63780474 -188.46606445 178.40551758 C-187.83736963 175.16060919 -187.70371595 171.92083298 -187.5 168.625 C-186.69485362 159.81811634 -183.86363953 151.58249421 -181.0625 143.25 C-180.83949219 142.58284973 -180.61648438 141.91569946 -180.38671875 141.22833252 C-176.41169993 129.42350005 -176.41169993 129.42350005 -173 124 C-172.40459035 122.53377095 -171.84229949 121.05369173 -171.3125 119.5625 C-164.23255938 101.54325262 -151.78972097 85.34259683 -139 71 C-138.54093262 70.47921875 -138.08186523 69.9584375 -137.60888672 69.421875 C-121.8731317 51.60822869 -103.46892438 37.91196103 -83 26 C-82.38656738 25.64147949 -81.77313477 25.28295898 -81.14111328 24.91357422 C-78.56721653 23.40989575 -75.98983439 21.91276182 -73.40625 20.42578125 C-71.47177478 19.27954187 -69.59875524 18.02990748 -67.75 16.75 C-62.88223291 13.65233004 -57.86791679 11.4498828 -52 12 C-52 11.34 -52 10.68 -52 10 C-51.3387915 9.823479 -50.67758301 9.64695801 -49.99633789 9.46508789 C-47.01744177 8.66772647 -44.03996581 7.86518511 -41.0625 7.0625 C-40.02158203 6.78470703 -38.98066406 6.50691406 -37.90820312 6.22070312 C-36.91884766 5.95322266 -35.92949219 5.68574219 -34.91015625 5.41015625 C-33.99371338 5.16402588 -33.07727051 4.91789551 -32.13305664 4.66430664 C-30.03825076 4.1932065 -30.03825076 4.1932065 -29 3 C-27.5387489 2.78569557 -26.06884765 2.62952614 -24.59765625 2.5 C-23.70755859 2.4175 -22.81746094 2.335 -21.90039062 2.25 C-20.96388672 2.1675 -20.02738281 2.085 -19.0625 2 C-17.21972495 1.83699018 -15.37725425 1.67049063 -13.53515625 1.5 C-12.714104 1.4278125 -11.89305176 1.355625 -11.04711914 1.28125 C-1.51689261 -0.0280906 -1.51689261 -0.0280906 0 0 Z " fill="#DCDBFD" transform="translate(481,291)"/>
<path d="M0 0 C0.66 0.33 1.32 0.66 2 1 C1.87625 2.093125 1.7525 3.18625 1.625 4.3125 C1.56856644 9.5702267 4.03973786 13.27900875 6.6875 17.6796875 C8 20 8 20 8 22 C8.845625 21.319375 9.69125 20.63875 10.5625 19.9375 C14 18 14 18 17.375 17.8125 C21.53971547 19.17680334 23.57712447 20.96180949 26.73046875 23.91015625 C52.01362204 47.19154525 89.47939561 56.62503933 122.03051758 64.53979492 C124.69746501 65.18992922 127.36140494 65.8515195 130.02539062 66.51367188 C138.84673433 68.68112507 147.52271034 70.56614731 156.55395508 71.6340332 C159 72 159 72 160 73 C163.38854824 73.51697685 166.78758288 73.90165136 170.19140625 74.3046875 C173.63326598 74.75607258 177.02480082 75.38178124 180.43043518 76.05201721 C189.627965 77.85468181 198.8013775 79.01841224 208.125 79.9375 C208.92440002 80.01860016 209.72380005 80.09970032 210.54742432 80.18325806 C228.99679388 82.04831164 247.48921073 83.38226703 265.98486328 84.69311523 C267.11321594 84.77333923 268.2415686 84.85356323 269.40411377 84.93621826 C271.5170573 85.08571137 273.6301277 85.2334269 275.74334717 85.37896729 C280.05328811 85.6821824 284.34601112 86.0176285 288.63793945 86.51757812 C310.2901494 89.01788427 332.425948 88.20027929 354.1875 88.1875 C355.08791771 88.18738041 355.98833542 88.18726082 356.91603851 88.1871376 C383.52758483 88.18266406 410.08162717 88.0243342 436.64013672 86.16467285 C439.12825635 85.99105019 441.61679924 85.82472337 444.10546875 85.65917969 C461.97212124 84.45861406 479.76450446 82.97534761 497.52734375 80.67578125 C501.89897253 80.11543395 506.26690569 79.6960542 510.65893555 79.33496094 C533.33361937 77.45215432 555.82633771 73.00617961 578 68 C579.15387207 67.73960938 580.30774414 67.47921875 581.49658203 67.2109375 C596.7854007 63.72240524 611.80289278 59.79527796 626.66357422 54.78027344 C628.82198258 54.05945075 630.98707096 53.37035378 633.16015625 52.6953125 C642.17568052 49.84241651 650.56805167 46.23329712 659 42 C659.97598145 41.51394287 659.97598145 41.51394287 660.97167969 41.01806641 C674.2637362 34.34593691 685.8282199 26.6434064 694 13.875 C695.93367761 11.09533844 697.12846992 9.70497098 700 8 C702.875 7.671875 702.875 7.671875 706 7.75 C707.03125 7.76546875 708.0625 7.7809375 709.125 7.796875 C711.56523241 7.96928272 713.66520594 8.30405177 716 9 C716.33 8.34 716.66 7.68 717 7 C722.07439443 13.42756628 723.54224446 20.86633312 723 29 C719.97370456 37.3910919 714.88914941 44.39933626 709 51 C708.36835937 51.72574219 707.73671875 52.45148438 707.0859375 53.19921875 C670.23084065 92.82912018 602.60444945 107.14971097 551.77978516 116.31640625 C548.07273541 116.98684542 544.37022286 117.67862008 540.66796875 118.375 C526.63966519 120.98402728 512.62489044 123.05525825 498.453125 124.70019531 C495.33153574 125.08169527 492.23045105 125.56775902 489.125 126.0625 C481.60650155 127.16923761 474.04185547 127.67808732 466.46533203 128.21508789 C465.43520996 128.28848389 464.40508789 128.36187988 463.34375 128.4375 C462.26925095 128.51389206 461.19475189 128.59028412 460.08769226 128.66899109 C457.19111928 128.89023305 454.30601348 129.17186355 451.41777039 129.48309326 C436.60801098 131.04082423 421.93237594 131.29398899 407.05078125 131.265625 C404.49806176 131.2669783 401.94534253 131.26892431 399.3926239 131.27142334 C394.0686064 131.27435031 388.74465876 131.27036052 383.4206543 131.26074219 C378.03845575 131.25112742 372.65636829 131.25106172 367.27416992 131.26074219 C338.12743404 131.31085185 309.0666947 131.3569014 280 129 C278.86662201 128.91085327 277.73324402 128.82170654 276.56552124 128.7298584 C269.34739556 128.15201056 262.14187738 127.47813674 254.9375 126.75 C253.87412415 126.6442868 252.81074829 126.53857361 251.71514893 126.42965698 C230.04576657 124.26247846 208.5012706 121.45163838 187 118 C186.27713806 117.88460876 185.55427612 117.76921753 184.80950928 117.65032959 C21.09870469 91.38064259 21.09870469 91.38064259 -19.83984375 36.53515625 C-22.36004116 32.73485857 -23.92784364 30.0282282 -24.25 25.4375 C-19.8892593 13.44546307 -10.42567282 6.58844602 0 0 Z " fill="#8BBFFD" transform="translate(371,1210)"/>
<path d="M0 0 C0.99354744 0.00023918 1.98709488 0.00047836 3.01074982 0.00072479 C53.51818643 0.01606931 103.48827359 2.38746343 153.4375 10.375 C154.31794983 10.51548767 155.19839966 10.65597534 156.10552979 10.80072021 C177.70033748 14.26760767 199.17782491 18.20867036 220.4375 23.375 C221.54834961 23.64280273 222.65919922 23.91060547 223.80371094 24.18652344 C239.9696319 28.12125626 255.75736242 32.81470952 271.4375 38.375 C272.18 38.63635742 272.9225 38.89771484 273.6875 39.16699219 C278.31058118 40.8065224 282.88460559 42.54997292 287.4375 44.375 C288.19998047 44.67954102 288.96246094 44.98408203 289.74804688 45.29785156 C312.94197992 54.66214832 339.37630791 65.42289493 356.4375 84.375 C357.241875 85.15875 358.04625 85.9425 358.875 86.75 C373.29745575 101.52422297 373.29745575 101.52422297 373.9375 111 C373.79210952 114.40213732 373.40546497 115.42563602 371.5 118.4375 C367.98905901 120.65870756 365.88505886 121.22473667 361.78125 120.9921875 C356.22656046 119.52945259 352.50841478 115.08846366 349.5625 110.375 C344.31739866 102.97015105 334.59934357 98.51873061 326.875 94 C325.44426147 93.16082031 325.44426147 93.16082031 323.98461914 92.3046875 C311.44491375 84.99605814 299.13293723 78.27944712 285.4375 73.375 C283.8716699 72.75839044 282.30900166 72.13367584 280.75 71.5 C279.93015625 71.17515625 279.1103125 70.8503125 278.265625 70.515625 C276.18266165 69.67553481 274.11126898 68.80661528 272.046875 67.921875 C261.53731792 63.52519447 250.75579045 60.29715253 239.8125 57.1875 C238.70577438 56.87241486 238.70577438 56.87241486 237.57669067 56.55096436 C217.50689957 50.80581225 217.50689957 50.80581225 197.0625 46.6875 C189.6746372 45.4935686 189.6746372 45.4935686 187.4375 44.375 C185.73510457 44.06905349 184.02483019 43.80679244 182.3125 43.5625 C177.96291118 42.92075739 173.62553919 42.24451176 169.29296875 41.49609375 C147.35023617 37.70860876 125.32455448 34.78616737 103.17773438 32.50634766 C101.57920821 32.34179349 99.98088023 32.17529592 98.3828125 32.00634766 C66.56774296 28.66934317 34.87196503 28.07175705 2.91241455 28.17938232 C-1.15418937 28.19025057 -5.22076048 28.18980378 -9.2873764 28.18937778 C-45.82410403 27.80556958 -45.82410403 27.80556958 -82.171875 30.84375 C-87.98544518 31.61147506 -93.83927428 31.9192054 -99.6875 32.3125 C-110.81475424 33.08127534 -121.77574391 34.35327869 -132.80615234 35.97949219 C-137.7385195 36.68723663 -142.68250257 37.30523607 -147.625 37.9375 C-162.20519801 39.60317295 -162.20519801 39.60317295 -176.5 42.75 C-181.93962966 44.32338125 -187.43129689 45.32393318 -193 46.3125 C-193.9595459 46.48410645 -194.9190918 46.65571289 -195.90771484 46.83251953 C-199.62195094 47.49584234 -203.33633552 48.15829262 -207.05175781 48.81494141 C-254.94320836 57.39739028 -312.1093137 74.58739913 -350.4296875 105.703125 C-352.5625 107.375 -352.5625 107.375 -354.5625 107.375 C-354.2325 130.805 -353.9025 154.235 -353.5625 178.375 C-352.9025 178.705 -352.2425 179.035 -351.5625 179.375 C-354.32284696 181.69369145 -357.10510312 183.13417971 -360.4375 184.484375 C-363.04020346 185.57521395 -365.57384429 186.79374703 -368.125 188 C-371.94573602 189.75248636 -375.32528854 191.03144231 -379.5625 191.375 C-380.33502904 185.28443394 -380.6846752 179.4086062 -380.58422852 173.27514648 C-380.57462097 172.41551804 -380.56501343 171.55588959 -380.55511475 170.67021179 C-380.52244345 167.86208052 -380.4819925 165.0541208 -380.44140625 162.24609375 C-380.41707388 160.28598107 -380.39323194 158.32586225 -380.36985779 156.36573792 C-380.30732681 151.23160754 -380.23817402 146.09758732 -380.16760254 140.96356201 C-380.0966375 135.71469089 -380.03198969 130.4657423 -379.96679688 125.21679688 C-379.83818454 114.93611274 -379.70257063 104.65553396 -379.5625 94.375 C-378.0775 93.88 -378.0775 93.88 -376.5625 93.375 C-375.87749264 92.05099579 -375.21253171 90.7165219 -374.5625 89.375 C-372.99365234 87.8828125 -372.99365234 87.8828125 -371.1484375 86.5 C-370.46910156 85.98953125 -369.78976562 85.4790625 -369.08984375 84.953125 C-368.02443359 84.17195312 -368.02443359 84.17195312 -366.9375 83.375 C-365.90689453 82.59382812 -365.90689453 82.59382812 -364.85546875 81.796875 C-360.95668497 78.90021763 -357.0887948 76.51212435 -352.70556641 74.4296875 C-348.37390836 72.29790774 -344.23766749 69.79503969 -340.0625 67.375 C-332.40817531 62.93834695 -324.82760118 58.58920602 -316.5625 55.375 C-315.5415625 54.818125 -315.5415625 54.818125 -314.5 54.25 C-312.5625 53.375 -312.5625 53.375 -308.5625 53.375 C-308.5625 52.715 -308.5625 52.055 -308.5625 51.375 C-307.325 50.983125 -306.0875 50.59125 -304.8125 50.1875 C-301.11085523 48.95986044 -297.54605631 47.54645592 -293.96484375 46.00390625 C-288.02217403 43.51180428 -282.02025193 41.43019788 -275.875 39.5 C-274.8120874 39.16266846 -273.7491748 38.82533691 -272.65405273 38.4777832 C-261.94081957 35.11431714 -251.13409515 32.10623359 -240.30395508 29.14575195 C-237.60004248 28.38555496 -234.91797687 27.57090626 -232.234375 26.7421875 C-228.58850327 25.63664171 -225.03056594 24.83942597 -221.25 24.3125 C-218.36828715 23.90852156 -215.9008452 23.51480163 -213.20849609 22.40234375 C-210.58945513 21.38546569 -208.23330197 20.85390744 -205.46484375 20.41015625 C-204.50433105 20.25135986 -203.54381836 20.09256348 -202.55419922 19.92895508 C-201.54631348 19.7667749 -200.53842773 19.60459473 -199.5 19.4375 C-193.2432569 18.3998983 -187.06027837 17.36858585 -180.9375 15.6875 C-175.92198295 14.33410651 -171.08743898 13.98472996 -165.9140625 13.67578125 C-162.55573253 13.37439266 -159.41737972 12.78343092 -156.125 12.0625 C-136.19703169 7.90747827 -115.81002479 6.09746878 -95.5625 4.25 C-94.69001617 4.16968536 -93.81753235 4.08937073 -92.91860962 4.00662231 C-87.48047104 3.51030432 -82.04025824 3.05004434 -76.59664917 2.61785889 C-74.5223032 2.45182442 -72.44835753 2.28073174 -70.37478638 2.10528564 C-46.91873158 0.14591091 -23.52350129 -0.02513343 0 0 Z " fill="#8BBEFC" transform="translate(728.5625,808.625)"/>
<path d="M0 0 C3.67155666 0.64523469 7.29168824 0.58568102 11.01171875 0.56640625 C11.75808594 0.57027344 12.50445313 0.57414063 13.2734375 0.578125 C17.15311461 0.57125831 20.72252773 0.38870401 24.51171875 -0.55859375 C23.1197596 2.22532455 21.35596096 2.42039622 18.51171875 3.44140625 C18.51171875 4.10140625 18.51171875 4.76140625 18.51171875 5.44140625 C19.62546875 6.24578125 19.62546875 6.24578125 20.76171875 7.06640625 C25.21200614 10.90983627 27.18414651 15.1484006 28.01171875 20.94140625 C27.13372222 27.08738198 24.45692524 32.54518295 19.51171875 36.44140625 C11.58151608 40.30945965 1.6428396 38.55345755 -6.92700195 37.94238281 C-15.33937142 37.38441311 -23.72765683 37.25994335 -32.15625 37.23828125 C-32.92283747 37.23545387 -33.68942493 37.2326265 -34.47924232 37.22971344 C-38.55493107 37.21485011 -42.63058575 37.20554592 -46.70629883 37.20117188 C-49.98180594 37.19683813 -53.25704205 37.18312838 -56.5324707 37.16015625 C-100.9335057 36.85547605 -146.12108736 40.23883043 -189.625 49.44921875 C-193.99441915 50.36580514 -198.38135435 51.11370462 -202.78613281 51.83862305 C-243.19169401 58.51940061 -285.1044573 70.36516282 -320.48828125 91.44140625 C-321.53991455 91.94583252 -322.59154785 92.45025879 -323.67504883 92.9699707 C-326.73310318 95.65648326 -326.93939125 96.09504317 -327.42895508 99.89941406 C-327.54690212 101.72947343 -327.63376804 103.561708 -327.6953125 105.39453125 C-327.75103928 106.36872009 -327.80676605 107.34290894 -327.86418152 108.34661865 C-328.03665784 111.46081518 -328.16963679 114.57522145 -328.30078125 117.69140625 C-328.45869825 120.79236571 -328.6245561 123.89283199 -328.79093933 126.99334717 C-328.89133577 128.92077616 -328.98520714 130.8485599 -329.07148743 132.77667236 C-329.31279037 138.04830563 -329.75988091 143.21401776 -330.48828125 148.44140625 C-329.49828125 148.77140625 -328.50828125 149.10140625 -327.48828125 149.44140625 C-328.21418457 149.84456055 -328.94008789 150.24771484 -329.68798828 150.66308594 C-332.40639786 152.1744227 -335.12352981 153.68802545 -337.83984375 155.203125 C-339.58367284 156.17490641 -341.3289341 157.14411641 -343.07421875 158.11328125 C-344.1828125 158.73203125 -345.29140625 159.35078125 -346.43359375 159.98828125 C-347.95750732 160.83664551 -347.95750732 160.83664551 -349.51220703 161.70214844 C-352.57540091 163.44041187 -352.57540091 163.44041187 -355.67919922 165.65722656 C-358.48828125 167.44140625 -358.48828125 167.44140625 -361.48828125 167.44140625 C-361.58094803 155.40213198 -361.65202958 143.36294251 -361.69552994 131.32338428 C-361.71640762 125.73295816 -361.74472897 120.14277597 -361.79003906 114.55249023 C-361.83348975 109.15787545 -361.857417 103.76349536 -361.86779022 98.3687191 C-361.87518294 96.31020093 -361.88961913 94.25169566 -361.91120148 92.19327736 C-361.9402248 89.3106164 -361.94423766 86.42892606 -361.94238281 83.54614258 C-361.95676392 82.69450027 -361.97114502 81.84285797 -361.98596191 80.96540833 C-361.95803776 76.95660512 -361.81655155 74.95578976 -359.61053467 71.49906921 C-353.35879664 65.43760186 -345.98132915 60.95623811 -338.30078125 56.94140625 C-335.31856266 55.35088967 -332.44339715 53.62652836 -329.55078125 51.87890625 C-323.72774567 48.46462637 -317.7772414 45.86829985 -311.48828125 43.44140625 C-310.4828125 43.04308594 -309.47734375 42.64476562 -308.44140625 42.234375 C-305.13476466 40.93886244 -301.81474345 39.68511701 -298.48828125 38.44140625 C-297.27140625 37.97863281 -296.05453125 37.51585937 -294.80078125 37.0390625 C-283.00199673 32.65124261 -270.91214794 29.49261742 -258.74145508 26.31616211 C-255.39150929 25.41538494 -252.06649587 24.44654799 -248.73828125 23.46875 C-240.78619091 21.18436517 -232.76187745 19.36442551 -224.67578125 17.62890625 C-223.88715698 17.45910248 -223.09853271 17.28929871 -222.28601074 17.11434937 C-177.77069097 7.58143934 -132.83678059 1.70245553 -87.42675781 -1.29736328 C-84.28719283 -1.50560371 -81.14957885 -1.72907289 -78.01171875 -1.9609375 C-53.04517939 -3.65632737 -24.53170538 -5.50711753 0 0 Z " fill="#8ABFFD" transform="translate(709.48828125,992.55859375)"/>
<path d="M0 0 C0.33 0 0.66 0 1 0 C1.33 17.82 1.66 35.64 2 54 C1.67 54 1.34 54 1 54 C1 52.02 1 50.04 1 48 C0.34 48 -0.32 48 -1 48 C-1.02526945 41.3247966 -1.04283268 34.64960543 -1.05493164 27.97436523 C-1.05997325 25.70157409 -1.06680637 23.4287862 -1.07543945 21.15600586 C-1.08751261 17.89696449 -1.09322987 14.63796583 -1.09765625 11.37890625 C-1.10281754 10.35599991 -1.10797882 9.33309357 -1.11329651 8.27919006 C-1.11337204 7.33829025 -1.11344757 6.39739044 -1.11352539 5.42797852 C-1.115746 4.59524918 -1.11796661 3.76251984 -1.12025452 2.90455627 C-1 1 -1 1 0 0 Z " fill="#65B49D" transform="translate(104,540)"/>
<path d="M0 0 C4.95828264 0.3718712 7.88293934 2.04824145 11.8984375 4.72265625 C15.11079479 6.67514851 18.44709375 7.79454967 22 9 C22 9.66 22 10.32 22 11 C23.3303125 11.1546875 23.3303125 11.1546875 24.6875 11.3125 C28.10685807 12.02217809 30.10943744 13.09831411 33 15 C34.32608822 15.68096422 35.65686601 16.35330586 37 17 C34.42716302 17.96472057 33.23845341 18.07936353 30.59326172 17.19897461 C29.27479248 16.55714233 29.27479248 16.55714233 27.9296875 15.90234375 C26.46015625 15.19368164 26.46015625 15.19368164 24.9609375 14.47070312 C23.43339844 13.71176758 23.43339844 13.71176758 21.875 12.9375 C20.87984375 12.45861328 19.8846875 11.97972656 18.859375 11.48632812 C12.39594056 8.33477099 5.95912255 5.0448058 0 1 C0 0.67 0 0.34 0 0 Z " fill="#AAB0D8" transform="translate(382,1271)"/>
<path d="M0 0 C5.94240613 0.39077047 10.57124937 1.38256666 16 4 C21.77642841 6.7669533 27.3823595 8.77920387 33.6171875 10.2890625 C36 11 36 11 39 13 C40.65549531 13.38499891 42.3222433 13.72793135 44 14 C44 14.66 44 15.32 44 16 C35.5701388 14.44029 27.74787422 11.49390814 19.75 8.5 C18.38821309 7.99557441 17.02623507 7.49166445 15.6640625 6.98828125 C10.42075351 5.04600647 5.18323712 3.09861456 0 1 C0 0.67 0 0.34 0 0 Z " fill="#A9ACD4" transform="translate(417,1289)"/>
<path d="M0 0 C0.66 0.33 1.32 0.66 2 1 C-5.59 8.59 -13.18 16.18 -21 24 C-21.66 23.67 -22.32 23.34 -23 23 C-8.1431293 6.74285575 -8.1431293 6.74285575 0 0 Z " fill="#BED9E8" transform="translate(363,341)"/>
<path d="M0 0 C0 0.33 0 0.66 0 1 C-1.15757812 1.19335938 -2.31515625 1.38671875 -3.5078125 1.5859375 C-5.04691717 1.84871147 -6.58597734 2.11174612 -8.125 2.375 C-8.88554687 2.50132812 -9.64609375 2.62765625 -10.4296875 2.7578125 C-13.87070868 3.35109201 -16.99880625 3.99957951 -20.3046875 5.1640625 C-23.09911861 6.03074113 -24.31229114 6.03373418 -27 5 C-17.70895187 0.56094367 -10.25835833 -0.14939357 0 0 Z " fill="#1C5742" transform="translate(341,282)"/>
<path d="M0 0 C-0.66 2.31 -1.32 4.62 -2 7 C-3.4800841 6.88637738 -4.95910074 6.75877092 -6.4375 6.625 C-7.26121094 6.55539062 -8.08492188 6.48578125 -8.93359375 6.4140625 C-9.61550781 6.27742188 -10.29742187 6.14078125 -11 6 C-11.33 5.34 -11.66 4.68 -12 4 C-10.3767313 3.3291288 -8.75132422 2.66342971 -7.125 2 C-6.22007812 1.62875 -5.31515625 1.2575 -4.3828125 0.875 C-2 0 -2 0 0 0 Z " fill="#BACDDF" transform="translate(484,281)"/>
<path d="M0 0 C-1.24891614 0.48198463 -2.49918808 0.96045677 -3.75 1.4375 C-4.79414062 1.83775391 -4.79414062 1.83775391 -5.859375 2.24609375 C-9.60568931 3.56550737 -12.76773756 4.12106268 -16.75 4.0625 C-17.54921875 4.05347656 -18.3484375 4.04445313 -19.171875 4.03515625 C-19.77515625 4.02355469 -20.3784375 4.01195312 -21 4 C-17.61847808 2.10203794 -14.26563452 1.19776958 -10.5 0.3125 C-9.3759375 0.04050781 -8.251875 -0.23148438 -7.09375 -0.51171875 C-4.2315358 -0.9634571 -2.67758663 -0.97784414 0 0 Z " fill="#13392B" transform="translate(521,775)"/>
<path d="M0 0 C4.49014624 1.49671541 8.47848764 3.83368341 12 7 C12 7.66 12 8.32 12 9 C13.32 9.33 14.64 9.66 16 10 C16 10.66 16 11.32 16 12 C11.66923089 10.55113209 8.68128855 8.351329 5.1875 5.4375 C4.21167969 4.63183594 3.23585938 3.82617188 2.23046875 2.99609375 C1.49441406 2.33738281 0.75835937 1.67867187 0 1 C0 0.67 0 0.34 0 0 Z " fill="#B5B3D9" transform="translate(363,1257)"/>
<path d="M0 0 C-0.66 0 -1.32 0 -2 0 C-2 0.66 -2 1.32 -2 2 C-2.59167969 2.25394531 -3.18335938 2.50789063 -3.79296875 2.76953125 C-8.05083126 4.62409779 -12.02387516 6.59022737 -16 9 C-16.66 9 -17.32 9 -18 9 C-18 8.34 -18 7.68 -18 7 C-15.56876731 5.63336613 -13.13113837 4.2816133 -10.6875 2.9375 C-9.99720703 2.54755859 -9.30691406 2.15761719 -8.59570312 1.75585938 C-3.33984375 -1.11328125 -3.33984375 -1.11328125 0 0 Z " fill="#0D281E" transform="translate(258,309)"/>
<path d="M0 0 C-3.1749094 1.9078584 -5.10585211 2.1609041 -8.75 1.625 C-9.54921875 1.51414062 -10.3484375 1.40328125 -11.171875 1.2890625 C-11.77515625 1.19367188 -12.3784375 1.09828125 -13 1 C-13 0.67 -13 0.34 -13 0 C-11.39679026 -0.19551338 -9.79237014 -0.38111983 -8.1875 -0.5625 C-7.29417969 -0.66691406 -6.40085937 -0.77132813 -5.48046875 -0.87890625 C-3 -1 -3 -1 0 0 Z M-13 1 C-13 1.33 -13 1.66 -13 2 C-17.76307437 2.95261487 -22.1666528 3.08333357 -27 3 C-27 2.67 -27 2.34 -27 2 C-22.23692563 1.04738513 -17.8333472 0.91666643 -13 1 Z " fill="#56D2A5" transform="translate(378,302)"/>
<path d="M0 0 C-6.56654456 2.3030887 -12.03672362 3.33693273 -19 3 C-15.79303059 0.8620204 -13.82077335 0.430362 -10.0625 -0.1875 C-8.50208984 -0.45626953 -8.50208984 -0.45626953 -6.91015625 -0.73046875 C-4.22831359 -0.97885418 -2.52075332 -0.85644872 0 0 Z " fill="#163E30" transform="translate(541,771)"/>
<path d="M0 0 C0.66 0.33 1.32 0.66 2 1 C-1.63 4.63 -5.26 8.26 -9 12 C-9.33 11.01 -9.66 10.02 -10 9 C-9.01 8.67 -8.02 8.34 -7 8 C-6.71125 7.401875 -6.4225 6.80375 -6.125 6.1875 C-4.64462682 3.30899659 -2.57721429 1.89900001 0 0 Z " fill="#7DACE5" transform="translate(359,894)"/>
<path d="M0 0 C-5.36000789 2.25684543 -9.1977825 3.36263859 -15 3 C-12.50497077 0.50497077 -10.94071581 0.41462527 -7.5 -0.1875 C-6.5203125 -0.36667969 -5.540625 -0.54585937 -4.53125 -0.73046875 C-2 -1 -2 -1 0 0 Z " fill="#12382B" transform="translate(490,783)"/>
<path d="M0 0 C0 2.52574723 -0.12954259 4.92790959 -0.375 7.4375 C-0.44460938 8.19933594 -0.51421875 8.96117187 -0.5859375 9.74609375 C-1.02428579 12.13219716 -1.81919263 13.89278684 -3 16 C-3.66 15.67 -4.32 15.34 -5 15 C-4.66871094 14.43539062 -4.33742188 13.87078125 -3.99609375 13.2890625 C-2.60481242 10.09184344 -2.9897497 7.44318727 -3.22265625 4.0234375 C-3.14917969 3.35570312 -3.07570313 2.68796875 -3 2 C-2.01 1.34 -1.02 0.68 0 0 Z " fill="#54D2A4" transform="translate(598,205)"/>
<path d="M0 0 C3.36591866 1.44253657 5.51047079 3.33264727 8 6 C7.67 6.99 7.34 7.98 7 9 C5.82737096 7.88121617 4.66204862 6.75476949 3.5 5.625 C2.8503125 4.99851562 2.200625 4.37203125 1.53125 3.7265625 C0 2 0 2 0 0 Z " fill="#AAABD3" transform="translate(353,1247)"/>
<path d="M0 0 C-6.56053812 4.12376682 -6.56053812 4.12376682 -10.08984375 3.8203125 C-12 3.25 -12 3.25 -15 2 C-15 1.67 -15 1.34 -15 1 C-12.87630763 0.63807496 -10.7509887 0.28568253 -8.625 -0.0625 C-6.84996094 -0.35833984 -6.84996094 -0.35833984 -5.0390625 -0.66015625 C-2 -1 -2 -1 0 0 Z " fill="#9296AF" transform="translate(734,993)"/>
<path d="M0 0 C-1.24176695 0.70226141 -2.49385599 1.38629109 -3.75 2.0625 C-4.79414063 2.63677734 -4.79414063 2.63677734 -5.859375 3.22265625 C-8.36140628 4.1312406 -9.5332355 3.88336837 -12 3 C-10.75823305 2.29773859 -9.50614401 1.61370891 -8.25 0.9375 C-7.20585937 0.36322266 -7.20585937 0.36322266 -6.140625 -0.22265625 C-3.63859372 -1.1312406 -2.4667645 -0.88336837 0 0 Z " fill="#164434" transform="translate(397,816)"/>
<path d="M0 0 C0.33 0.66 0.66 1.32 1 2 C0.22265625 3.9453125 0.22265625 3.9453125 -0.9375 6.125 C-1.31777344 6.84945313 -1.69804687 7.57390625 -2.08984375 8.3203125 C-2.39019531 8.87460937 -2.69054687 9.42890625 -3 10 C-3.33 10 -3.66 10 -4 10 C-3.38461538 3.47692308 -3.38461538 3.47692308 -1.4375 1.0625 C-0.7259375 0.5365625 -0.7259375 0.5365625 0 0 Z " fill="#143E2F" transform="translate(135,427)"/>
<path d="M0 0 C3.8063457 0.67170806 7.35206816 1.72746564 11 3 C9.4375 4.25 9.4375 4.25 7 5 C4.42998985 3.93237266 2.3469597 2.53455057 0 1 C0 0.67 0 0.34 0 0 Z " fill="#AEB5DF" transform="translate(408,1284)"/>
<path d="M0 0 C0.99 0.33 1.98 0.66 3 1 C1.71283353 2.00578589 0.42011342 3.00446798 -0.875 4 C-1.95394531 4.8353125 -1.95394531 4.8353125 -3.0546875 5.6875 C-5 7 -5 7 -7 7 C-6.67 6.01 -6.34 5.02 -6 4 C-5.01 4 -4.02 4 -3 4 C-3 3.34 -3 2.68 -3 2 C-2.01 1.34 -1.02 0.68 0 0 Z " fill="#0B221A" transform="translate(227,324)"/>
<path d="M0 0 C1.31611677 0.95336021 2.62778961 1.91285774 3.9375 2.875 C4.66839844 3.40867187 5.39929687 3.94234375 6.15234375 4.4921875 C8 6 8 6 9 8 C4.75153925 7.52794881 2.73180712 5.11122478 0 2 C0 1.34 0 0.68 0 0 Z " fill="#0F2F23" transform="translate(1113,847)"/>
<path d="M0 0 C0.66 0.33 1.32 0.66 2 1 C1.0409375 1.804375 1.0409375 1.804375 0.0625 2.625 C-2.38529404 5.44367193 -2.66714612 7.33860732 -3 11 C-3.33 11 -3.66 11 -4 11 C-4.35233161 5.62694301 -4.35233161 5.62694301 -4 3 C-2 1 -2 1 0 0 Z " fill="#C4D3FE" transform="translate(386,1085)"/>
<path d="M0 0 C2.3125 0.1875 2.3125 0.1875 5 1 C6.8125 3.5625 6.8125 3.5625 8 6 C4.63408134 4.55746343 2.48952921 2.66735273 0 0 Z " fill="#154132" transform="translate(902,208)"/>
<path d="M0 0 C0.99 0.33 1.98 0.66 3 1 C-0.465 3.97 -0.465 3.97 -4 7 C-3.67 5.68 -3.34 4.36 -3 3 C-2.34 3 -1.68 3 -1 3 C-0.67 2.01 -0.34 1.02 0 0 Z " fill="#0D291F" transform="translate(182,361)"/>
</svg>
